<svg width="45" height="45" viewBox="0 0 45 45" fill="none" xmlns="http://www.w3.org/2000/svg">
<rect width="45" height="45" rx="22.5" fill="black"/>
<path d="M22.6813 18.4062C24.65 18.4062 26.275 20.0312 26.275 22C26.275 24 24.65 25.5938 22.6813 25.5938C20.6813 25.5938 19.0875 24 19.0875 22C19.0875 20.0312 20.6813 18.4062 22.6813 18.4062ZM22.6813 24.3438C23.9625 24.3438 24.9938 23.3125 24.9938 22C24.9938 20.7188 23.9625 19.6875 22.6813 19.6875C21.3688 19.6875 20.3375 20.7188 20.3375 22C20.3375 23.3125 21.4 24.3438 22.6813 24.3438ZM27.2438 18.2812C27.2438 18.75 26.8688 19.125 26.4 19.125C25.9313 19.125 25.5563 18.75 25.5563 18.2812C25.5563 17.8125 25.9313 17.4375 26.4 17.4375C26.8688 17.4375 27.2438 17.8125 27.2438 18.2812ZM29.6188 19.125C29.6813 20.2812 29.6813 23.75 29.6188 24.9062C29.5563 26.0312 29.3063 27 28.4938 27.8438C27.6813 28.6562 26.6813 28.9062 25.5563 28.9688C24.4 29.0312 20.9313 29.0312 19.775 28.9688C18.65 28.9062 17.6813 28.6562 16.8375 27.8438C16.025 27 15.775 26.0312 15.7125 24.9062C15.65 23.75 15.65 20.2812 15.7125 19.125C15.775 18 16.025 17 16.8375 16.1875C17.6813 15.375 18.65 15.125 19.775 15.0625C20.9313 15 24.4 15 25.5563 15.0625C26.6813 15.125 27.6813 15.375 28.4938 16.1875C29.3063 17 29.5563 18 29.6188 19.125ZM28.1188 26.125C28.4938 25.2188 28.4 23.0312 28.4 22C28.4 21 28.4938 18.8125 28.1188 17.875C27.8688 17.2812 27.4 16.7812 26.8063 16.5625C25.8688 16.1875 23.6813 16.2812 22.6813 16.2812C21.65 16.2812 19.4625 16.1875 18.5563 16.5625C17.9313 16.8125 17.4625 17.2812 17.2125 17.875C16.8375 18.8125 16.9313 21 16.9313 22C16.9313 23.0312 16.8375 25.2188 17.2125 26.125C17.4625 26.75 17.9313 27.2188 18.5563 27.4688C19.4625 27.8438 21.65 27.75 22.6813 27.75C23.6813 27.75 25.8688 27.8438 26.8063 27.4688C27.4 27.2188 27.9 26.75 28.1188 26.125Z" fill="white"/>
</svg>
