<svg width="45" height="45" viewBox="0 0 45 45" fill="none" xmlns="http://www.w3.org/2000/svg">
<rect width="45" height="45" rx="22.5" fill="black"/>
<path d="M30.8094 17.9062C31.1844 19.2188 31.1844 22.0312 31.1844 22.0312C31.1844 22.0312 31.1844 24.8125 30.8094 26.1562C30.6219 26.9062 30.0281 27.4688 29.3094 27.6562C27.9656 28 22.6531 28 22.6531 28C22.6531 28 17.3094 28 15.9656 27.6562C15.2469 27.4688 14.6531 26.9062 14.4656 26.1562C14.0906 24.8125 14.0906 22.0312 14.0906 22.0312C14.0906 22.0312 14.0906 19.2188 14.4656 17.9062C14.6531 17.1562 15.2469 16.5625 15.9656 16.375C17.3094 16 22.6531 16 22.6531 16C22.6531 16 27.9656 16 29.3094 16.375C30.0281 16.5625 30.6219 17.1562 30.8094 17.9062ZM20.9031 24.5625L25.3406 22.0312L20.9031 19.5V24.5625Z" fill="white"/>
</svg>
