<svg width="45" height="45" viewBox="0 0 45 45" fill="none" xmlns="http://www.w3.org/2000/svg">
<rect width="45" height="45" rx="22.5" fill="black"/>
<path d="M18.8063 28H15.9V18.6562H18.8063V28ZM17.3375 17.4062C16.4313 17.4062 15.6813 16.625 15.6813 15.6875C15.6813 14.7812 16.4313 14.0312 17.3375 14.0312C18.275 14.0312 19.025 14.7812 19.025 15.6875C19.025 16.625 18.275 17.4062 17.3375 17.4062ZM29.65 28H26.775V23.4688C26.775 22.375 26.7438 21 25.2438 21C23.7438 21 23.525 22.1562 23.525 23.375V28H20.6188V18.6562H23.4V19.9375H23.4313C23.8375 19.2188 24.775 18.4375 26.1813 18.4375C29.1188 18.4375 29.6813 20.375 29.6813 22.875V28H29.65Z" fill="white"/>
</svg>
